Coordinates
nRows=250
nColumns=2
inDegrees=yes
endheader
time	ankle_angle_r	
2.76091	 18.814263	
2.79418	 18.846647	
2.82744	 18.864678	
2.8607	 18.868615	
2.89397	 18.865342	
2.92723	 18.856560	
2.9605	 18.845712	
2.99376	 18.838604	
3.02702	 18.833224	
3.06029	 18.828150	
3.09355	 18.827715	
3.12682	 18.829877	
3.16008	 18.828549	
3.19334	 18.822635	
3.22661	 18.814458	
3.25987	 18.808207	
3.29314	 18.805936	
3.3264	 18.805241	
3.35966	 18.803294	
3.39293	 18.797161	
3.42619	 18.787741	
3.45946	 18.781232	
3.49272	 18.777878	
3.52598	 18.773035	
3.55925	 18.766254	
3.59251	 18.757182	
3.62578	 18.747536	
3.65904	 18.743564	
3.6923	 18.743595	
3.72557	 18.741150	
3.75883	 18.736182	
3.7921	 18.728344	
3.82536	 18.719107	
3.85862	 18.715502	
3.89189	 18.714856	
3.92515	 18.708122	
3.95842	 18.697306	
3.99168	 18.690900	
4.02494	 18.697615	
4.05821	 18.722029	
4.09147	 18.751706	
4.12474	 18.769283	
4.158	 18.775332	
4.19126	 18.776566	
4.22453	 18.773843	
4.25779	 18.771710	
4.29106	 18.773021	
4.32432	 18.773962	
4.35758	 18.775683	
4.39085	 18.783402	
4.42411	 18.797951	
4.45738	 18.813438	
4.49064	 18.821573	
4.5239	 18.824038	
4.55717	 18.828804	
4.59043	 18.835236	
4.6237	 18.839181	
4.65696	 18.839731	
4.69022	 18.838219	
4.72349	 18.840844	
4.75675	 18.848507	
4.79002	 18.851889	
4.82328	 18.849532	
4.85654	 18.848174	
4.88981	 18.848922	
4.92307	 18.851588	
4.95634	 18.855173	
4.9896	 18.852871	
5.02286	 18.842463	
5.05613	 18.830244	
5.08939	 18.821284	
5.12266	 18.815081	
5.15592	 18.805041	
5.18918	 18.786049	
5.22245	 18.766995	
5.25571	 18.758955	
5.28898	 18.758670	
5.32224	 18.762490	
5.3555	 18.771279	
5.38877	 18.775976	
5.42203	 18.769100	
5.4553	 18.756946	
5.48856	 18.747242	
5.52182	 18.744104	
5.55509	 18.746534	
5.58835	 18.746613	
5.62162	 18.739575	
5.65488	 18.725971	
5.68814	 18.708751	
5.72141	 18.694366	
5.75467	 18.684636	
5.78794	 18.676949	
5.8212	 18.672766	
5.85446	 18.671964	
5.88773	 18.671996	
5.92099	 18.672744	
5.95426	 18.670453	
5.98752	 18.662593	
6.02078	 18.656600	
6.05405	 18.656664	
6.08731	 18.659290	
6.12058	 18.663615	
6.15384	 18.666374	
6.1871	 18.663697	
6.22037	 18.658942	
6.25363	 18.652087	
6.2869	 18.642779	
6.32016	 18.640055	
6.35342	 18.645594	
6.38669	 18.649103	
6.41995	 18.645997	
6.45322	 18.638508	
6.48648	 18.632763	
6.51974	 18.638236	
6.55301	 18.652578	
6.58627	 18.663889	
6.61954	 18.670867	
6.6528	 18.677955	
6.68606	 18.685198	
6.71933	 18.692131	
6.75259	 18.697238	
6.78586	 18.703332	
6.81912	 18.719342	
6.85238	 18.743418	
6.88565	 18.764737	
6.91891	 18.780938	
6.95218	 18.794897	
6.98544	 18.806338	
7.0187	 18.814133	
7.05197	 18.820261	
7.08523	 18.827962	
7.1185	 18.833918	
7.15176	 18.832315	
7.18502	 18.826752	
7.21829	 18.823823	
7.25155	 18.824536	
7.28482	 18.829718	
7.31808	 18.838213	
7.35134	 18.844092	
7.38461	 18.846119	
7.41787	 18.846955	
7.45114	 18.846270	
7.4844	 18.847289	
7.51766	 18.853790	
7.55093	 18.859342	
7.58419	 18.858837	
7.61746	 18.855897	
7.65072	 18.851629	
7.68398	 18.846923	
7.71725	 18.845509	
7.75051	 18.846301	
7.78378	 18.848053	
7.81704	 18.850613	
7.8503	 18.849191	
7.88357	 18.843252	
7.91683	 18.837689	
7.9501	 18.833158	
7.98336	 18.829871	
8.01662	 18.828576	
8.04989	 18.826060	
8.08315	 18.821320	
8.11642	 18.815811	
8.14968	 18.807659	
8.18294	 18.794347	
8.21621	 18.775562	
8.24947	 18.756436	
8.28274	 18.744505	
8.316	 18.737660	
8.34926	 18.731190	
8.38253	 18.727927	
8.41579	 18.726495	
8.44906	 18.721526	
8.48232	 18.713302	
8.51558	 18.701745	
8.54885	 18.687428	
8.58211	 18.675879	
8.61538	 18.668596	
8.64864	 18.665071	
8.6819	 18.667220	
8.71517	 18.668230	
8.74843	 18.660673	
8.7817	 18.651518	
8.81496	 18.647282	
8.84822	 18.646678	
8.88149	 18.649952	
8.91475	 18.655070	
8.94802	 18.658691	
8.98128	 18.664377	
9.01454	 18.675481	
9.04781	 18.689468	
9.08107	 18.702013	
9.11434	 18.706393	
9.1476	 18.703207	
9.18086	 18.708147	
9.21413	 18.727758	
9.24739	 18.749352	
9.28066	 18.764026	
9.31392	 18.771283	
9.34718	 18.772734	
9.38045	 18.774457	
9.41371	 18.779810	
9.44698	 18.787044	
9.48024	 18.795868	
9.5135	 18.805262	
9.54677	 18.813910	
9.58003	 18.821478	
9.6133	 18.825729	
9.64656	 18.827460	
9.67982	 18.829170	
9.71309	 18.830286	
9.74635	 18.834044	
9.77962	 18.843114	
9.81288	 18.851451	
9.84614	 18.854455	
9.87941	 18.853043	
9.91267	 18.849640	
9.94594	 18.850019	
9.9792	 18.854976	
10.0125	 18.856030	
10.0457	 18.851069	
10.079	 18.845869	
10.1123	 18.842163	
10.1455	 18.841513	
10.1788	 18.846946	
10.212	 18.855463	
10.2453	 18.862433	
10.2786	 18.863870	
10.3118	 18.854580	
10.3451	 18.839168	
10.3784	 18.827963	
10.4116	 18.819840	
10.4449	 18.811896	
10.4782	 18.807136	
10.5114	 18.801896	
10.5447	 18.791810	
10.578	 18.780636	
10.6112	 18.772025	
10.6445	 18.770745	
10.6777	 18.780436	
10.711	 18.793593	
10.7443	 18.801899	
10.7775	 18.804716	
10.8108	 18.803936	
10.8441	 18.804063	
10.8773	 18.806805	
10.9106	 18.807981	
10.9439	 18.805631	
10.9771	 18.799704	
11.0104	 18.791281	
11.0436	 18.783566	
